<mxfile host="drawio-plugin" modified="2022-03-06T17:14:40.159Z" agent="5.0 (Windows NT 6.2; Win64; x64) AppleWebKit/537.36 (KHTML, like Gecko) Chrome/87.0.4280.141 Safari/537.36" version="15.5.4" etag="JbMy6LZPacitAivznYNl" type="embed"><diagram id="qUXzb4UhWK6M_FcO1RaR" name="Page-1"><mxGraphModel dx="1366" dy="1055" grid="1" gridSize="10" guides="1" tooltips="1" connect="1" arrows="1" fold="1" page="1" pageScale="1" pageWidth="850" pageHeight="1100" math="0" shadow="0"><root><mxCell id="0"/><mxCell id="1" parent="0"/><mxCell id="2" style="edgeStyle=orthogonalEdgeStyle;rounded=0;orthogonalLoop=1;jettySize=auto;html=1;entryX=-0.012;entryY=0.018;entryDx=0;entryDy=0;entryPerimeter=0;" edge="1" parent="1" source="3" target="11"><mxGeometry relative="1" as="geometry"><Array as="points"><mxPoint x="243" y="341"/></Array></mxGeometry></mxCell><mxCell id="3" value="" style="shape=umlLifeline;participant=umlActor;perimeter=lifelinePerimeter;whiteSpace=wrap;html=1;container=1;collapsible=0;recursiveResize=0;verticalAlign=top;spacingTop=36;labelBackgroundColor=#ffffff;outlineConnect=0;" vertex="1" parent="1"><mxGeometry x="80" y="120" width="20" height="300" as="geometry"/></mxCell><mxCell id="4" value="" style="html=1;points=[];perimeter=orthogonalPerimeter;" vertex="1" parent="3"><mxGeometry x="5" y="60" width="10" height="210" as="geometry"/></mxCell><mxCell id="5" value="" style="edgeStyle=orthogonalEdgeStyle;rounded=0;orthogonalLoop=1;jettySize=auto;html=1;exitX=1.036;exitY=0.237;exitDx=0;exitDy=0;exitPerimeter=0;" edge="1" parent="1" source="4" target="9"><mxGeometry relative="1" as="geometry"><mxPoint x="100" y="270" as="sourcePoint"/><Array as="points"><mxPoint x="310" y="230"/><mxPoint x="310" y="230"/></Array></mxGeometry></mxCell><mxCell id="6" value="Canvas" style="shape=umlLifeline;perimeter=lifelinePerimeter;whiteSpace=wrap;html=1;container=1;collapsible=0;recursiveResize=0;outlineConnect=0;" vertex="1" parent="1"><mxGeometry x="160" y="120" width="100" height="300" as="geometry"/></mxCell><mxCell id="7" value="" style="html=1;points=[];perimeter=orthogonalPerimeter;" vertex="1" parent="6"><mxGeometry x="45" y="80" width="10" height="190" as="geometry"/></mxCell><mxCell id="8" value="" style="edgeStyle=orthogonalEdgeStyle;rounded=0;orthogonalLoop=1;jettySize=auto;html=1;entryX=0.057;entryY=0;entryDx=0;entryDy=0;entryPerimeter=0;" edge="1" parent="1" source="9" target="13"><mxGeometry relative="1" as="geometry"><Array as="points"><mxPoint x="566" y="310"/></Array></mxGeometry></mxCell><mxCell id="9" value="ChatBox" style="shape=umlLifeline;perimeter=lifelinePerimeter;whiteSpace=wrap;html=1;container=1;collapsible=0;recursiveResize=0;outlineConnect=0;" vertex="1" parent="1"><mxGeometry x="340" y="120" width="100" height="305" as="geometry"/></mxCell><mxCell id="10" value="" style="html=1;points=[];perimeter=orthogonalPerimeter;" vertex="1" parent="9"><mxGeometry x="45" y="110" width="10" height="90" as="geometry"/></mxCell><mxCell id="11" value="" style="html=1;points=[];perimeter=orthogonalPerimeter;" vertex="1" parent="9"><mxGeometry x="45" y="220" width="10" height="80" as="geometry"/></mxCell><mxCell id="12" value="GuessBox" style="shape=umlLifeline;perimeter=lifelinePerimeter;whiteSpace=wrap;html=1;container=1;collapsible=0;recursiveResize=0;outlineConnect=0;" vertex="1" parent="1"><mxGeometry x="520" y="120" width="100" height="305" as="geometry"/></mxCell><mxCell id="13" value="" style="html=1;points=[];perimeter=orthogonalPerimeter;" vertex="1" parent="12"><mxGeometry x="45" y="190" width="10" height="90" as="geometry"/></mxCell><mxCell id="14" value="Guesser" style="text;html=1;align=center;verticalAlign=middle;resizable=0;points=[];autosize=1;" vertex="1" parent="1"><mxGeometry x="60" y="100" width="60" height="20" as="geometry"/></mxCell><mxCell id="15" style="edgeStyle=orthogonalEdgeStyle;rounded=0;orthogonalLoop=1;jettySize=auto;html=1;exitX=1.037;exitY=0.106;exitDx=0;exitDy=0;exitPerimeter=0;entryX=0.073;entryY=0.007;entryDx=0;entryDy=0;entryPerimeter=0;" edge="1" parent="1" source="4" target="7"><mxGeometry relative="1" as="geometry"><mxPoint x="200" y="202" as="targetPoint"/><Array as="points"><mxPoint x="95" y="201"/><mxPoint x="140" y="201"/></Array></mxGeometry></mxCell><mxCell id="16" value="View of the canvas" style="text;html=1;align=center;verticalAlign=middle;resizable=0;points=[];autosize=1;" vertex="1" parent="1"><mxGeometry x="91" y="180" width="120" height="20" as="geometry"/></mxCell><mxCell id="17" value="Guess the drawing" style="text;html=1;align=center;verticalAlign=middle;resizable=0;points=[];autosize=1;" vertex="1" parent="1"><mxGeometry x="241" y="210" width="120" height="20" as="geometry"/></mxCell><mxCell id="18" value="Chat with team" style="text;html=1;align=center;verticalAlign=middle;resizable=0;points=[];autosize=1;" vertex="1" parent="1"><mxGeometry x="241" y="320" width="100" height="20" as="geometry"/></mxCell><mxCell id="19" value="Guesses" style="text;html=1;align=center;verticalAlign=middle;resizable=0;points=[];autosize=1;" vertex="1" parent="1"><mxGeometry x="460" y="290" width="60" height="20" as="geometry"/></mxCell><mxCell id="20" style="edgeStyle=orthogonalEdgeStyle;rounded=0;orthogonalLoop=1;jettySize=auto;html=1;entryX=0.033;entryY=0.038;entryDx=0;entryDy=0;entryPerimeter=0;" edge="1" parent="1" source="21" target="26"><mxGeometry relative="1" as="geometry"><Array as="points"><mxPoint x="180" y="616"/><mxPoint x="180" y="616"/></Array><mxPoint x="399.8800000000001" y="721.44" as="targetPoint"/></mxGeometry></mxCell><mxCell id="21" value="" style="shape=umlLifeline;participant=umlActor;perimeter=lifelinePerimeter;whiteSpace=wrap;html=1;container=1;collapsible=0;recursiveResize=0;verticalAlign=top;spacingTop=36;labelBackgroundColor=#ffffff;outlineConnect=0;" vertex="1" parent="1"><mxGeometry x="95" y="500" width="20" height="300" as="geometry"/></mxCell><mxCell id="22" value="" style="html=1;points=[];perimeter=orthogonalPerimeter;" vertex="1" parent="21"><mxGeometry x="5" y="60" width="10" height="210" as="geometry"/></mxCell><mxCell id="23" value="Canvas" style="shape=umlLifeline;perimeter=lifelinePerimeter;whiteSpace=wrap;html=1;container=1;collapsible=0;recursiveResize=0;outlineConnect=0;" vertex="1" parent="1"><mxGeometry x="175" y="500" width="100" height="300" as="geometry"/></mxCell><mxCell id="24" value="" style="html=1;points=[];perimeter=orthogonalPerimeter;" vertex="1" parent="23"><mxGeometry x="45" y="80" width="10" height="190" as="geometry"/></mxCell><mxCell id="25" value="ChatBox" style="shape=umlLifeline;perimeter=lifelinePerimeter;whiteSpace=wrap;html=1;container=1;collapsible=0;recursiveResize=0;outlineConnect=0;" vertex="1" parent="1"><mxGeometry x="355" y="500" width="100" height="305" as="geometry"/></mxCell><mxCell id="26" value="" style="html=1;points=[];perimeter=orthogonalPerimeter;" vertex="1" parent="25"><mxGeometry x="45" y="110" width="10" height="160" as="geometry"/></mxCell><mxCell id="27" value="Drawer" style="text;html=1;align=center;verticalAlign=middle;resizable=0;points=[];autosize=1;" vertex="1" parent="1"><mxGeometry x="80" y="480" width="50" height="20" as="geometry"/></mxCell><mxCell id="28" style="edgeStyle=orthogonalEdgeStyle;rounded=0;orthogonalLoop=1;jettySize=auto;html=1;exitX=1.037;exitY=0.106;exitDx=0;exitDy=0;exitPerimeter=0;entryX=0.073;entryY=0.007;entryDx=0;entryDy=0;entryPerimeter=0;" edge="1" parent="1" source="22" target="24"><mxGeometry relative="1" as="geometry"><mxPoint x="215" y="582" as="targetPoint"/><Array as="points"><mxPoint x="110" y="581"/><mxPoint x="155" y="581"/></Array></mxGeometry></mxCell><mxCell id="29" value="Draw on the Canvas" style="text;html=1;align=center;verticalAlign=middle;resizable=0;points=[];autosize=1;" vertex="1" parent="1"><mxGeometry x="106" y="560" width="120" height="20" as="geometry"/></mxCell><mxCell id="30" value="Chat with team" style="text;html=1;align=center;verticalAlign=middle;resizable=0;points=[];autosize=1;" vertex="1" parent="1"><mxGeometry x="260" y="590" width="100" height="20" as="geometry"/></mxCell></root></mxGraphModel></diagram></mxfile>